Coordinates
version=1
nRows=8
nColumns=63
inDegrees=yes

Units are S.I. units (second, meters, Newtons, ...)
If the header above contains a line with 'inDegrees', this indicates whether rotational values are in degrees (yes) or radians (no).

endheader
time	pelvis_tilt	pelvis_list	pelvis_rotation	pelvis_tx	pelvis_ty	pelvis_tz	hip_flexion_r	hip_adduction_r	hip_rotation_r	knee_angle_r	knee_angle_r_beta	ankle_angle_r	subtalar_angle_r	mtp_angle_r	hip_flexion_l	hip_adduction_l	hip_rotation_l	knee_angle_l	knee_angle_l_beta	ankle_angle_l	subtalar_angle_l	mtp_angle_l	L5_S1_Flex_Ext	L5_S1_Lat_Bending	L5_S1_axial_rotation	L4_L5_Flex_Ext	L4_L5_Lat_Bending	L4_L5_axial_rotation	L3_L4_Flex_Ext	L3_L4_Lat_Bending	L3_L4_axial_rotation	L2_L3_Flex_Ext	L2_L3_Lat_Bending	L2_L3_axial_rotation	L1_L2_Flex_Ext	L1_L2_Lat_Bending	L1_L2_axial_rotation	L1_T12_Flex_Ext	L1_T12_Lat_Bending	L1_T12_axial_rotation	Abs_r3	Abs_r2	Abs_r1	Abs_t1	Abs_t2	neck_flexion	neck_bending	neck_rotation	arm_flex_r	arm_add_r	arm_rot_r	elbow_flex_r	pro_sup_r	wrist_flex_r	wrist_dev_r	arm_flex_l	arm_add_l	arm_rot_l	elbow_flex_l	pro_sup_l	wrist_flex_l	wrist_dev_l
5.063830	-2.491476	-6.794187	79.543495	0.012272	1.059554	0.504284	3.423837	-1.820638	-0.969482	6.892882	0.120303	21.202030	14.574714	0.000000	1.031080	-0.706513	5.455249	2.341049	0.040859	20.348644	-10.628314	0.000000	-0.150506	-0.097365	1.697607	-0.279504	-0.129495	1.803708	-0.247266	-0.236733	1.803708	-0.172013	-0.236733	1.485406	-0.139760	-0.198546	1.379306	-0.085999	-0.150818	1.273205	-1.075048	-1.101410	9.441581	0.000000	0.000000	26.442952	7.154423	12.790908	17.151259	-9.646045	137.362202	-0.105020	-2.495981	-7.525033	-14.787384	8.802462	-17.887776	20.557663	41.984703	86.837433	-7.203414	18.750563
5.085106	-2.508171	-6.701143	79.937504	0.012128	1.059717	0.502715	3.093308	-1.857462	-1.133778	6.679456	0.116579	21.255868	14.191453	0.000000	0.839024	-0.662527	6.402944	2.226342	0.038857	20.279250	-11.366322	0.000000	-0.162527	-0.116414	1.640926	-0.301829	-0.154830	1.743484	-0.267016	-0.283048	1.743484	-0.185752	-0.283048	1.435810	-0.150923	-0.237391	1.333252	-0.092868	-0.180325	1.230695	-1.160915	-1.316894	9.126338	0.000000	0.000000	26.621322	7.323580	12.234336	15.802069	-9.926683	133.895057	0.596059	1.692712	-9.328571	-15.387888	7.042788	-18.924349	20.735370	43.727228	87.251944	-7.313855	17.459991
5.106383	-2.539478	-6.605313	80.406985	0.012009	1.059994	0.501161	2.751128	-1.909278	-1.396473	6.455805	0.112675	21.306213	13.860665	0.000000	0.666738	-0.610371	7.279237	2.135936	0.037279	20.251582	-11.845110	0.000000	-0.171687	-0.139171	1.565202	-0.318841	-0.185097	1.663027	-0.282065	-0.338380	1.663027	-0.196222	-0.338380	1.369552	-0.159429	-0.283797	1.271727	-0.098102	-0.215576	1.173902	-1.226346	-1.574329	8.705184	0.000000	0.000000	26.739315	7.481747	11.575605	14.877388	-9.832028	135.417528	0.443325	1.678618	-10.330265	-16.596018	5.199985	-19.944918	21.053428	45.584366	87.672655	-7.651301	15.821504
5.127660	-2.551949	-6.502266	80.958669	0.011792	1.060355	0.499661	2.384931	-1.940455	-1.676551	6.208969	0.108367	21.313537	13.475050	0.000000	0.510328	-0.580625	8.108990	2.077578	0.036261	20.268760	-12.083227	0.000000	-0.179397	-0.159466	1.474057	-0.333159	-0.212089	1.566185	-0.294732	-0.387724	1.566185	-0.205033	-0.387724	1.289800	-0.166588	-0.325182	1.197671	-0.102508	-0.247012	1.105543	-1.281418	-1.803906	8.198262	0.000000	0.000000	26.795847	7.605019	10.869664	14.076255	-9.709261	136.829636	0.392260	1.695808	-10.731982	-17.854359	3.324878	-20.861073	21.488508	47.476673	87.971981	-8.012559	14.010885
5.148936	-2.572521	-6.386421	81.570988	0.011514	1.060785	0.498240	1.999196	-1.977922	-1.997161	5.953499	0.103908	21.299112	13.097382	0.000000	0.360848	-0.548706	8.837862	2.045198	0.035695	20.316988	-12.061458	0.000000	-0.186110	-0.180853	1.366258	-0.345625	-0.240534	1.451649	-0.305760	-0.439725	1.451649	-0.212705	-0.439725	1.195475	-0.172822	-0.368795	1.110084	-0.106343	-0.280141	1.024693	-1.329366	-2.045842	7.598715	0.000000	0.000000	26.787528	7.704647	10.108104	13.389127	-9.516428	138.104234	0.399987	1.736376	-10.615630	-19.179813	1.405328	-21.653549	21.815732	49.405117	88.215496	-8.163869	12.194988
5.170213	-2.588787	-6.260476	82.263692	0.011134	1.061256	0.496917	1.595590	-2.000164	-2.343507	5.688504	0.099283	21.261422	12.682187	0.000000	0.228426	-0.530802	9.467702	2.050673	0.035791	20.427751	-11.759377	0.000000	-0.191425	-0.200870	1.232953	-0.355495	-0.267157	1.310012	-0.314492	-0.488396	1.310012	-0.218779	-0.488396	1.078834	-0.177757	-0.409614	1.001774	-0.109380	-0.311148	0.924715	-1.367328	-2.272284	6.857314	0.000000	0.000000	26.701726	7.800311	9.398561	12.805658	-9.236026	139.224164	0.402448	1.737631	-9.903113	-20.527244	-0.493030	-22.318367	22.215808	51.278861	88.313006	-8.275554	10.195811
5.191489	-2.646546	-6.122994	82.992661	0.010760	1.061792	0.495759	1.189681	-2.051664	-2.709603	5.433328	0.094829	21.224732	12.268205	0.000000	0.108922	-0.484655	9.963894	2.089755	0.036473	20.551502	-11.213729	0.000000	-0.196296	-0.225804	1.076240	-0.364542	-0.300320	1.143505	-0.322495	-0.549021	1.143505	-0.224347	-0.549021	0.941710	-0.182281	-0.460460	0.874445	-0.112164	-0.349771	0.807180	-1.402126	-2.554344	5.985725	0.000000	0.000000	26.547226	7.920179	8.736003	12.337229	-8.804944	140.245988	0.385011	1.701128	-8.994739	-21.801549	-2.362285	-22.873787	22.496683	53.084741	88.455050	-8.128245	8.009077
5.212766	-2.733519	-5.979011	83.733511	0.010391	1.062384	0.494793	0.793704	-2.115934	-3.075627	5.193374	0.090641	21.178541	11.854711	0.000000	0.004459	-0.422034	10.319380	2.161032	0.037717	20.688062	-10.476950	0.000000	-0.200836	-0.253033	0.898992	-0.372972	-0.336534	0.955179	-0.329953	-0.615225	0.955179	-0.229535	-0.615225	0.786618	-0.186496	-0.515985	0.730431	-0.114758	-0.391948	0.674244	-1.434550	-2.862360	4.999926	0.000000	0.000000	26.330442	8.054517	8.177863	11.998607	-8.244640	140.935371	0.357419	1.622872	-7.595921	-22.897678	-4.116545	-23.340027	22.867631	54.769769	88.581634	-8.079982	5.460838
